<svg id="a6e1ba9b-be51-4044-90ec-60a20b2245fb" xmlns="http://www.w3.org/2000/svg" xmlns:xlink="http://www.w3.org/1999/xlink" viewBox="0 0 52.36 52.36"><defs><clipPath id="fabb6727-68e3-4dd9-9a76-6979fae57f3f" transform="translate(2.18 2.18)"><circle cx="24" cy="24" r="24" style="fill:none"/></clipPath><linearGradient id="e4eac09d-c1d6-4471-9c77-684844c2292d" x1="2493.34" y1="-1369.02" x2="2545.84" y2="-1338.35" gradientTransform="matrix(0.27, 0, 0, -0.27, -674.18, -355.09)" gradientUnits="userSpaceOnUse"><stop offset="0" stop-color="#a52714" stop-opacity="0.6"/><stop offset="0.66" stop-color="#a52714" stop-opacity="0"/></linearGradient><linearGradient id="af7b1a24-88a6-4858-89c9-11b63ac37cf8" x1="2574.87" y1="-1458.49" x2="2516.54" y2="-1424.33" gradientTransform="matrix(0.27, 0, 0, -0.27, -674.18, -355.09)" gradientUnits="userSpaceOnUse"><stop offset="0" stop-color="#055524" stop-opacity="0.4"/><stop offset="0.33" stop-color="#055524" stop-opacity="0"/></linearGradient><clipPath id="f9af7cc4-0c0b-4e42-a0e8-48956619ecf8" transform="translate(2.18 2.18)"><polygon points="0 48 22.85 48 33.45 37.4 33.45 29.45 14.55 29.45 0 4.5 0 48" style="fill:none"/></clipPath><linearGradient id="a12530e7-37c0-42e0-b52b-8c0998fc3cd4" x1="2585.86" y1="-1343.8" x2="2600.54" y2="-1408.13" gradientTransform="matrix(0.27, 0, 0, -0.27, -674.18, -355.09)" gradientUnits="userSpaceOnUse"><stop offset="0" stop-color="#ea6100" stop-opacity="0.3"/><stop offset="0.66" stop-color="#ea6100" stop-opacity="0"/></linearGradient><clipPath id="a719bad8-5e06-463d-8214-3a288be013e5" transform="translate(2.18 2.18)"><polygon points="24 13.09 33.45 29.45 22.85 48 48 48 48 13.09 24 13.09" style="fill:none"/></clipPath><radialGradient id="bdda3c9a-58b1-485e-978c-8235775c263c" cx="3132.18" cy="-1349.95" r="84.08" gradientTransform="matrix(0.27, 0, 0, -0.27, -831.27, -355.09)" gradientUnits="userSpaceOnUse"><stop offset="0" stop-color="#3e2723" stop-opacity="0.2"/><stop offset="1" stop-color="#3e2723" stop-opacity="0"/></radialGradient><clipPath id="f2f490b3-e317-4789-89b5-61c9c4ee4cc3" transform="translate(2.18 2.18)"><polygon points="3.81 0 3.81 11 14.55 29.45 24 13.09 48 13.09 48 0 3.81 0" style="fill:none"/></clipPath><radialGradient id="ea33284c-0fb8-4e7f-ae76-336ef2238d29" cx="3061.87" cy="-1342.52" r="78.04" xlink:href="#bdda3c9a-58b1-485e-978c-8235775c263c"/><radialGradient id="b34460d9-cf2e-4728-9685-20afb38f4188" cx="3135.84" cy="-1390.14" r="87.87" gradientTransform="matrix(0.27, 0, 0, -0.27, -831.27, -355.09)" gradientUnits="userSpaceOnUse"><stop offset="0" stop-color="#263238" stop-opacity="0.2"/><stop offset="1" stop-color="#263238" stop-opacity="0"/></radialGradient><radialGradient id="b6a15be6-3a6e-4f9a-a92a-dfdc462bf5ab" cx="2498.29" cy="-1326.01" r="176.75" gradientTransform="matrix(0.27, 0, 0, -0.27, -672, -352.91)" gradientUnits="userSpaceOnUse"><stop offset="0" stop-color="#fff" stop-opacity="0.1"/><stop offset="1" stop-color="#fff" stop-opacity="0"/></radialGradient></defs><g style="clip-path:url(#fabb6727-68e3-4dd9-9a76-6979fae57f3f)"><path d="M3.81,0V29.45H14.55L24,13.09H48V0Z" transform="translate(2.18 2.18)" style="fill:#db4437"/><path d="M3.81,0V29.45H14.55L24,13.09H48V0Z" transform="translate(2.18 2.18)" style="fill:url(#e4eac09d-c1d6-4471-9c77-684844c2292d)"/></g><g style="clip-path:url(#fabb6727-68e3-4dd9-9a76-6979fae57f3f)"><path d="M14.81,29.36,4,10.73,3.79,11,14.57,29.49Z" transform="translate(2.18 2.18)" style="fill:#3e2723;fill-opacity:0.15000000596046448"/></g><g style="clip-path:url(#fabb6727-68e3-4dd9-9a76-6979fae57f3f)"><path d="M0,48H22.85l10.6-10.6V29.45H14.55L0,4.49Z" transform="translate(2.18 2.18)" style="fill:#0f9d58"/><path d="M0,48H22.85l10.6-10.6V29.45H14.55L0,4.49Z" transform="translate(2.18 2.18)" style="fill:url(#af7b1a24-88a6-4858-89c9-11b63ac37cf8)"/></g><g style="clip-path:url(#fabb6727-68e3-4dd9-9a76-6979fae57f3f)"><path d="M33.23,29.82,33,29.69,22.53,48h.32L33.24,29.83Z" transform="translate(2.18 2.18)" style="fill:#263238;fill-opacity:0.15000000596046448"/></g><g style="clip-path:url(#fabb6727-68e3-4dd9-9a76-6979fae57f3f)"><g style="clip-path:url(#f9af7cc4-0c0b-4e42-a0e8-48956619ecf8)"><path d="M24,13.09l9.45,16.36L22.85,48H48V13.09Z" transform="translate(2.18 2.18)" style="fill:#ffcd40"/><path d="M24,13.09l9.45,16.36L22.85,48H48V13.09Z" transform="translate(2.18 2.18)" style="fill:url(#a12530e7-37c0-42e0-b52b-8c0998fc3cd4)"/></g></g><g style="clip-path:url(#fabb6727-68e3-4dd9-9a76-6979fae57f3f)"><path d="M24,13.09l9.45,16.36L22.85,48H48V13.09Z" transform="translate(2.18 2.18)" style="fill:#ffcd40"/><path d="M24,13.09l9.45,16.36L22.85,48H48V13.09Z" transform="translate(2.18 2.18)" style="fill:url(#a12530e7-37c0-42e0-b52b-8c0998fc3cd4)"/></g><g style="clip-path:url(#fabb6727-68e3-4dd9-9a76-6979fae57f3f)"><g style="clip-path:url(#a719bad8-5e06-463d-8214-3a288be013e5)"><path d="M3.81,0V29.45H14.55L24,13.09H48V0Z" transform="translate(2.18 2.18)" style="fill:#db4437"/><path d="M3.81,0V29.45H14.55L24,13.09H48V0Z" transform="translate(2.18 2.18)" style="fill:url(#e4eac09d-c1d6-4471-9c77-684844c2292d)"/></g></g><g style="clip-path:url(#fabb6727-68e3-4dd9-9a76-6979fae57f3f)"><path d="M24,13.09V18.8l21.38-5.71Z" transform="translate(2.18 2.18)" style="fill:url(#bdda3c9a-58b1-485e-978c-8235775c263c)"/></g><g style="clip-path:url(#fabb6727-68e3-4dd9-9a76-6979fae57f3f)"><g style="clip-path:url(#f2f490b3-e317-4789-89b5-61c9c4ee4cc3)"><path d="M0,48H22.85l10.6-10.6V29.45H14.55L0,4.49Z" transform="translate(2.18 2.18)" style="fill:#0f9d58"/><path d="M0,48H22.85l10.6-10.6V29.45H14.55L0,4.49Z" transform="translate(2.18 2.18)" style="fill:url(#af7b1a24-88a6-4858-89c9-11b63ac37cf8)"/></g></g><g style="clip-path:url(#fabb6727-68e3-4dd9-9a76-6979fae57f3f)"><path d="M3.81,11,19.42,26.64l-4.87,2.81Z" transform="translate(2.18 2.18)" style="fill:url(#ea33284c-0fb8-4e7f-ae76-336ef2238d29)"/></g><g style="clip-path:url(#fabb6727-68e3-4dd9-9a76-6979fae57f3f)"><path d="M22.86,48l5.72-21.33,4.87,2.81Z" transform="translate(2.18 2.18)" style="fill:url(#b34460d9-cf2e-4728-9685-20afb38f4188)"/></g><g style="clip-path:url(#fabb6727-68e3-4dd9-9a76-6979fae57f3f)"><circle cx="26.18" cy="26.18" r="10.91" style="fill:#f1f1f1"/><circle cx="26.18" cy="26.18" r="8.73" style="fill:#4285f4"/></g><g style="clip-path:url(#fabb6727-68e3-4dd9-9a76-6979fae57f3f)"><path d="M24,12.82A10.91,10.91,0,0,0,13.09,23.73V24A10.92,10.92,0,0,1,24,13.09H48v-.27Z" transform="translate(2.18 2.18)" style="fill:#3e2723;fill-opacity:0.20000000298023224"/><path d="M33.44,29.45a10.89,10.89,0,0,1-18.88,0h0L0,4.49v.28l14.55,25h0a10.9,10.9,0,0,0,18.88,0h0v-.28Z" transform="translate(2.18 2.18)" style="fill:#fff;fill-opacity:0.10000000149011612"/><path d="M24.27,13.09h-.13a10.9,10.9,0,0,1,0,21.8h.13a10.91,10.91,0,1,0,0-21.82Z" transform="translate(2.18 2.18)" style="fill:#3e2723;opacity:0.10000000149011612;isolation:isolate"/><path d="M33.55,29.82a10.89,10.89,0,0,0,1-8.74,10.76,10.76,0,0,1-1.06,8.37h0L22.85,48h.31L33.55,29.83Z" transform="translate(2.18 2.18)" style="fill:#fff;fill-opacity:0.20000000298023224"/></g><g style="clip-path:url(#fabb6727-68e3-4dd9-9a76-6979fae57f3f)"><path d="M24,.27A24,24,0,0,1,48,24.14V24A24,24,0,0,0,0,24v.14A24,24,0,0,1,24,.27Z" transform="translate(2.18 2.18)" style="fill:#fff;fill-opacity:0.20000000298023224"/><path d="M24,47.73A24,24,0,0,0,48,23.86V24A24,24,0,0,1,0,24v-.14A24,24,0,0,0,24,47.73Z" transform="translate(2.18 2.18)" style="fill:#3e2723;fill-opacity:0.15000000596046448"/></g><circle cx="26.18" cy="26.18" r="24" style="fill:url(#b6a15be6-3a6e-4f9a-a92a-dfdc462bf5ab)"/><path d="M-2.18-2.18H50.18V50.18H-2.18Z" transform="translate(2.18 2.18)" style="fill:none"/></svg>
